<svg width="80" height="80" viewBox="0 0 80 80" fill="none" xmlns="http://www.w3.org/2000/svg">
<g clip-path="url(#clip0_14_223)">
<path d="M35.1196 24.0828C36.1979 18.7621 43.8021 18.7621 44.8804 24.0828C45.475 27.0171 48.506 28.7671 51.3445 27.8149C56.4915 26.0883 60.2937 32.6738 56.2249 36.268C53.981 38.2501 53.981 41.7499 56.2249 43.732C60.2937 47.3262 56.4915 53.9117 51.3445 52.1851C48.506 51.2329 45.475 52.9829 44.8804 55.9172C43.8021 61.2379 36.1979 61.2379 35.1196 55.9172C34.525 52.9829 31.494 51.2329 28.6555 52.1851C23.5085 53.9117 19.7063 47.3262 23.7751 43.732C26.019 41.7499 26.019 38.2501 23.7751 36.268C19.7063 32.6738 23.5085 26.0883 28.6555 27.8149C31.494 28.7671 34.525 27.0171 35.1196 24.0828Z" fill="#0790FF"/>
</g>
<defs>
<clipPath id="clip0_14_223">
<rect width="80" height="80" rx="8" fill="white"/>
</clipPath>
</defs>
</svg>
