<svg width="80" height="80" viewBox="0 0 80 80" fill="none" xmlns="http://www.w3.org/2000/svg">
<g filter="url(#filter0_d_14_140)">
<path d="M16.2583 22.4231C16.1435 19.1221 18.715 16.0783 22.1914 16.0783H57.8123C61.2887 16.0783 63.8603 19.1221 63.7455 22.4231C63.635 25.5939 63.7784 29.7014 64.812 33.0503C65.8491 36.41 67.5977 38.533 70.4618 38.8062V41.8999C67.5977 42.173 65.8491 44.2961 64.812 47.6557C63.7784 51.0047 63.635 55.1122 63.7455 58.2829C63.8603 61.5839 61.2887 64.6272 57.8123 64.6272H22.1914C18.715 64.6272 16.1435 61.5834 16.2583 58.2829C16.3687 55.1122 16.2254 51.0047 15.1912 47.6557C14.1547 44.2965 12.4012 42.173 9.53711 41.8999V38.8062C12.4012 38.5334 14.1547 36.41 15.1912 33.0503C16.2254 29.7014 16.3682 25.5939 16.2583 22.4231Z" fill="url(#paint0_linear_14_140)"/>
<g filter="url(#filter1_d_14_140)">
<path d="M41.5063 53.4346C47.1342 53.4346 50.5256 50.679 50.5256 46.1339C50.5256 42.6982 48.1058 40.211 44.5127 39.8172V39.6741C47.1525 39.2446 49.224 36.7932 49.224 34.0554C49.224 30.1545 46.1443 27.6134 41.4513 27.6134H30.892V53.4346H41.5063ZM34.9984 30.8881H40.4614C43.4312 30.8881 45.1176 32.2122 45.1176 34.61C45.1176 37.1689 43.1562 38.6004 39.5998 38.6004H34.9984V30.8881ZM34.9984 50.16V41.6603H40.4246C44.311 41.6603 46.3276 43.0917 46.3276 45.8833C46.3276 48.6747 44.3661 50.16 40.663 50.16H34.9984Z" fill="url(#paint1_linear_14_140)"/>
<path d="M41.5063 53.4346C47.1342 53.4346 50.5256 50.679 50.5256 46.1339C50.5256 42.6982 48.1058 40.211 44.5127 39.8172V39.6741C47.1525 39.2446 49.224 36.7932 49.224 34.0554C49.224 30.1545 46.1443 27.6134 41.4513 27.6134H30.892V53.4346H41.5063ZM34.9984 30.8881H40.4614C43.4312 30.8881 45.1176 32.2122 45.1176 34.61C45.1176 37.1689 43.1562 38.6004 39.5998 38.6004H34.9984V30.8881ZM34.9984 50.16V41.6603H40.4246C44.311 41.6603 46.3276 43.0917 46.3276 45.8833C46.3276 48.6747 44.3661 50.16 40.663 50.16H34.9984Z" stroke="white" stroke-width="0.24566"/>
</g>
</g>
<defs>
<filter id="filter0_d_14_140" x="-12" y="-8" width="104" height="104" filterUnits="userSpaceOnUse" color-interpolation-filters="sRGB">
<feFlood flood-opacity="0" result="BackgroundImageFix"/>
<feColorMatrix in="SourceAlpha" type="matrix" values="0 0 0 0 0 0 0 0 0 0 0 0 0 0 0 0 0 0 127 0" result="hardAlpha"/>
<feOffset dy="4"/>
<feGaussianBlur stdDeviation="6"/>
<feComposite in2="hardAlpha" operator="out"/>
<feColorMatrix type="matrix" values="0 0 0 0 0 0 0 0 0 0 0 0 0 0 0 0 0 0 0.1 0"/>
<feBlend mode="normal" in2="BackgroundImageFix" result="effect1_dropShadow_14_140"/>
<feBlend mode="normal" in="SourceGraphic" in2="effect1_dropShadow_14_140" result="shape"/>
</filter>
<filter id="filter1_d_14_140" x="26.8386" y="24.5427" width="27.7404" height="33.9279" filterUnits="userSpaceOnUse" color-interpolation-filters="sRGB">
<feFlood flood-opacity="0" result="BackgroundImageFix"/>
<feColorMatrix in="SourceAlpha" type="matrix" values="0 0 0 0 0 0 0 0 0 0 0 0 0 0 0 0 0 0 127 0" result="hardAlpha"/>
<feOffset dy="0.98264"/>
<feGaussianBlur stdDeviation="1.96528"/>
<feColorMatrix type="matrix" values="0 0 0 0 0 0 0 0 0 0 0 0 0 0 0 0 0 0 0.15 0"/>
<feBlend mode="normal" in2="BackgroundImageFix" result="effect1_dropShadow_14_140"/>
<feBlend mode="normal" in="SourceGraphic" in2="effect1_dropShadow_14_140" result="shape"/>
</filter>
<linearGradient id="paint0_linear_14_140" x1="18.5904" y1="17.3632" x2="71.8273" y2="59.6233" gradientUnits="userSpaceOnUse">
<stop stop-color="#9013FE"/>
<stop offset="1" stop-color="#6610F2"/>
</linearGradient>
<linearGradient id="paint1_linear_14_140" x1="32.7497" y1="29.3126" x2="44.6488" y2="49.4377" gradientUnits="userSpaceOnUse">
<stop stop-color="white"/>
<stop offset="1" stop-color="#F1E5FC"/>
</linearGradient>
</defs>
</svg>
