<svg width="80" height="80" viewBox="0 0 80 80" fill="none" xmlns="http://www.w3.org/2000/svg">
<path d="M66.9449 37.5057L42.4995 13.056C41.0927 11.648 38.8095 11.648 37.4004 13.056L32.3252 18.1337L38.7642 24.5742C40.2611 24.0689 41.9766 24.4078 43.1692 25.6007C43.7376 26.1697 44.1344 26.8872 44.3143 27.6712C44.4941 28.4552 44.4497 29.2739 44.1862 30.0338L50.3919 36.2419C51.8932 35.7242 53.6261 36.0587 54.8245 37.26C56.501 38.9355 56.501 41.6518 54.8245 43.3283C54.4261 43.727 53.953 44.0432 53.4324 44.259C52.9117 44.4748 52.3537 44.5858 51.7901 44.5858C51.2266 44.5858 50.6685 44.4748 50.1479 44.259C49.6272 44.0432 49.1542 43.727 48.7558 43.3283C48.1572 42.7292 47.7492 41.9664 47.5831 41.1359C47.4169 40.3054 47.5001 39.4443 47.8222 38.6609L42.0352 32.8721L42.0343 48.1065C42.4542 48.3133 42.8375 48.5872 43.1692 48.9174C44.8453 50.593 44.8453 53.3084 43.1692 54.9875C41.4932 56.6631 38.7766 56.6631 37.1024 54.9875C35.4268 53.3088 35.2893 50.5934 36.9644 48.9174C37.3787 48.5035 37.7872 48.1908 38.2307 47.9814V32.606C37.7872 32.3966 37.3791 32.086 36.964 31.6695C35.6951 30.4007 35.4578 28.5375 36.1089 26.9777L29.7963 20.6282L13.0517 37.3926C11.6435 38.802 11.6524 41.0858 13.0606 42.4943L37.51 66.944C38.9172 68.352 41.2022 68.352 42.6117 66.944L66.9431 42.6078C68.3513 41.1989 68.3526 38.9138 66.9449 37.5057Z" fill="#F34F29"/>
</svg>
