<svg width="80" height="80" viewBox="0 0 80 80" fill="none" xmlns="http://www.w3.org/2000/svg">
<path fill-rule="evenodd" clip-rule="evenodd" d="M39.9998 13C24.538 13 12 25.5352 12 40.9998C12 53.3713 20.0228 63.8663 31.148 67.5691C32.5468 67.8288 33.0606 66.9617 33.0606 66.2222C33.0606 65.5545 33.0346 63.3489 33.0225 61.0092C25.233 62.703 23.5893 57.7056 23.5893 57.7056C22.3156 54.4692 20.4804 53.6087 20.4804 53.6087C17.9395 51.8708 20.6719 51.907 20.6719 51.907C23.4831 52.1041 24.9641 54.7924 24.9641 54.7924C27.4614 59.072 31.5142 57.835 33.112 57.12C33.3633 55.3103 34.089 54.0746 34.8897 53.3754C28.6706 52.6683 22.1325 50.267 22.1325 39.5383C22.1325 36.4814 23.2267 33.9836 25.0178 32.0223C24.7267 31.3175 23.7683 28.4697 25.2886 24.6129C25.2886 24.6129 27.6394 23.8604 32.9901 27.483C35.224 26.8622 37.6198 26.5501 39.9998 26.5395C42.3784 26.5501 44.7755 26.8612 47.0136 27.4821C52.3578 23.8595 54.7058 24.612 54.7058 24.612C56.2299 28.4683 55.2715 31.3166 54.9808 32.0214C56.7761 33.9827 57.8624 36.4804 57.8624 39.5374C57.8624 50.2916 51.3123 52.6591 45.0774 53.3527C46.0821 54.2216 46.977 55.9261 46.977 58.5379C46.977 62.2843 46.9445 65.2995 46.9445 66.2217C46.9445 66.9668 47.449 67.8399 48.8678 67.565C59.9865 63.8584 68 53.3666 68 40.9998C67.9995 25.5361 55.463 13.0005 39.9998 13.0005V13Z" fill="#181616"/>
<path d="M22.6049 53.2011C22.5433 53.3402 22.3244 53.3819 22.125 53.2869C21.921 53.196 21.8074 53.0063 21.8733 52.8668C21.9335 52.723 22.1529 52.6836 22.3555 52.7796C22.5595 52.871 22.6754 53.0625 22.6045 53.2016L22.6049 53.2011ZM23.7391 54.4664C23.606 54.5902 23.3449 54.5327 23.1678 54.3366C22.9842 54.1419 22.9499 53.8808 23.0858 53.7552C23.2239 53.6318 23.4771 53.6903 23.6607 53.885C23.8434 54.0825 23.8795 54.3412 23.7395 54.4669L23.7391 54.4664ZM24.8435 56.0786C24.6719 56.1982 24.391 56.0865 24.2176 55.8375C24.046 55.588 24.046 55.289 24.2222 55.1698C24.3951 55.0502 24.6719 55.1582 24.8481 55.4049C25.0188 55.6576 25.0188 55.9566 24.8435 56.0781V56.0786ZM26.3555 57.637C26.2025 57.8062 25.8752 57.7608 25.6359 57.5303C25.3916 57.3045 25.3234 56.9832 25.4769 56.8144C25.6327 56.6447 25.9614 56.692 26.202 56.9211C26.4464 57.1464 26.5201 57.4682 26.3564 57.6365L26.3555 57.637ZM28.442 58.5416C28.3738 58.7609 28.0595 58.8606 27.7419 58.7669C27.4252 58.6709 27.2179 58.4145 27.2828 58.1929C27.3478 57.9717 27.6644 57.8683 27.9839 57.968C28.3006 58.0635 28.5078 58.3186 28.442 58.5416ZM30.7339 58.709C30.7418 58.9399 30.4729 59.1309 30.1404 59.1355C29.8052 59.1434 29.5339 58.9561 29.5307 58.7289C29.5307 58.4957 29.7941 58.307 30.1288 58.3005C30.4613 58.2944 30.7344 58.4799 30.7344 58.7085L30.7339 58.709ZM32.8658 58.3464C32.9057 58.5712 32.6743 58.8026 32.3437 58.8643C32.0192 58.9246 31.7178 58.7845 31.6761 58.5615C31.6362 58.3306 31.8717 58.0992 32.1963 58.0394C32.5274 57.9824 32.8241 58.1182 32.8658 58.3468V58.3464Z" fill="#181616"/>
</svg>
