<svg width="80" height="80" viewBox="0 0 80 80" fill="none" xmlns="http://www.w3.org/2000/svg">
<g filter="url(#filter0_d_14_102)">
<path d="M19.0273 16.25L22.8446 59.0185L39.9744 63.75L57.1516 59.0238L60.9727 16.25H19.0273ZM53.0328 26.3758L52.7936 29.1122L52.6883 30.3671H32.5942L33.0738 35.7088H52.2106L52.0824 37.0331L50.8488 50.8141L50.758 51.6802L40 54.6368V54.6376L39.987 54.6444L29.2362 51.8122L28.5063 43.7212H33.7774L34.1509 47.8873L39.9836 49.4444H40V49.236L45.8586 47.7576L46.4706 41.0504H28.2717L26.9809 26.5071L26.8554 25.0255H53.1587L53.0328 26.3758Z" fill="#E44D26"/>
</g>
<defs>
<filter id="filter0_d_14_102" x="-12" y="-8" width="104" height="104" filterUnits="userSpaceOnUse" color-interpolation-filters="sRGB">
<feFlood flood-opacity="0" result="BackgroundImageFix"/>
<feColorMatrix in="SourceAlpha" type="matrix" values="0 0 0 0 0 0 0 0 0 0 0 0 0 0 0 0 0 0 127 0" result="hardAlpha"/>
<feOffset dy="4"/>
<feGaussianBlur stdDeviation="6"/>
<feComposite in2="hardAlpha" operator="out"/>
<feColorMatrix type="matrix" values="0 0 0 0 0 0 0 0 0 0 0 0 0 0 0 0 0 0 0.1 0"/>
<feBlend mode="normal" in2="BackgroundImageFix" result="effect1_dropShadow_14_102"/>
<feBlend mode="normal" in="SourceGraphic" in2="effect1_dropShadow_14_102" result="shape"/>
</filter>
</defs>
</svg>
