<svg width="80" height="80" viewBox="0 0 80 80" fill="none" xmlns="http://www.w3.org/2000/svg">
<path d="M39.5802 48.8587H28.6614L26.4307 55.7563C26.372 56.0205 26.1372 56.1966 25.873 56.1672H20.3549C20.0321 56.1672 19.944 55.9911 20.0321 55.6389L29.4833 28.43C29.5713 28.1365 29.6594 27.8136 29.7768 27.4614C29.8942 26.845 29.9529 26.1993 29.9529 25.5535C29.9236 25.4068 30.041 25.26 30.1877 25.2307H30.2758H37.7898C38.0246 25.2307 38.142 25.3187 38.1714 25.4655L48.8847 55.6976C48.9727 56.0205 48.8847 56.1672 48.5912 56.1672H42.4567C42.2512 56.1966 42.0458 56.0498 41.9871 55.8444L39.5802 48.8587ZM30.3638 42.9003H37.8191C37.643 42.2839 37.4082 41.5501 37.144 40.787C36.8799 39.9945 36.6157 39.1433 36.3516 38.2628C36.058 37.3529 35.7939 36.4723 35.5004 35.5624C35.2068 34.6525 34.9427 33.8013 34.7079 32.9501C34.4731 32.1283 34.2676 31.3651 34.0621 30.6607H34.0034C33.7393 31.9228 33.4164 33.1849 33.0055 34.447C32.5652 35.8559 32.1249 37.3235 31.6553 38.7911C31.2444 40.288 30.8041 41.6675 30.3638 42.9003Z" fill="#FF9A00"/>
<path d="M55.4299 30.3673C54.4613 30.3966 53.5221 30.0151 52.8176 29.34C52.1425 28.6062 51.7903 27.6376 51.8197 26.6396C51.7903 25.6417 52.1719 24.7024 52.8763 24.0274C53.5808 23.3523 54.52 23 55.4886 23C56.6333 23 57.5139 23.3523 58.1596 24.0274C58.8054 24.7318 59.1576 25.671 59.1282 26.6396C59.1576 27.6376 58.8054 28.6062 58.1009 29.34C57.4258 30.0444 56.4279 30.426 55.4299 30.3673ZM52.1425 55.8445V33.2437C52.1425 32.9502 52.26 32.8328 52.5241 32.8328H58.3357C58.5999 32.8328 58.7173 32.9796 58.7173 33.2437V55.8445C58.7173 56.1673 58.5999 56.3141 58.3357 56.3141H52.5828C52.2893 56.3141 52.1425 56.138 52.1425 55.8445Z" fill="#FF9A00"/>
</svg>
