<svg width="80" height="80" viewBox="0 0 80 80" fill="none" xmlns="http://www.w3.org/2000/svg">
<path fill-rule="evenodd" clip-rule="evenodd" d="M23.622 23.1167C25.2431 24.4307 25.8513 24.3305 28.8956 24.1278L57.595 22.4086C58.2037 22.4086 57.6976 21.8028 57.4945 21.7021L52.7282 18.2644C51.8149 17.557 50.5982 16.7469 48.2661 16.9496L20.4764 18.9717C19.4629 19.072 19.2605 19.5776 19.6641 19.9828L23.622 23.1167ZM25.3451 29.7894V59.9155C25.3451 61.5346 26.156 62.1403 27.9813 62.0402L59.5221 60.2193C61.3483 60.1192 61.5517 59.0056 61.5517 57.6903V27.7664C61.5517 26.4533 61.0454 25.7451 59.9275 25.8462L26.9671 27.7664C25.7507 27.8684 25.3451 28.4754 25.3451 29.7894ZM56.482 31.4054C56.6842 32.3162 56.482 33.2262 55.5673 33.3286L54.0477 33.6306V55.8716C52.7282 56.5791 51.5115 56.9836 50.4976 56.9836C48.8743 56.9836 48.4677 56.4778 47.2518 54.9622L37.3113 39.3933V54.4566L40.4569 55.1648C40.4569 55.1648 40.4569 56.9836 37.919 56.9836L30.9228 57.3885C30.7195 56.9836 30.9228 55.9735 31.6325 55.7712L33.4582 55.2663V35.3498L30.9233 35.1471C30.72 34.2364 31.2263 32.9231 32.6472 32.8213L40.1525 32.3165L50.4976 48.088V34.1361L47.86 33.8341C47.6576 32.7207 48.4677 31.9122 49.482 31.812L56.482 31.4054ZM18.1431 16.2423L47.0489 14.1186C50.5986 13.8149 51.5119 14.0183 53.743 15.6352L62.97 22.1053C64.4925 23.2179 65 23.5208 65 24.7336V60.2193C65 62.4433 64.1879 63.7586 61.3488 63.9598L27.7805 65.9821C25.6492 66.0835 24.6349 65.7805 23.5187 64.3643L16.7238 55.5688C15.5063 53.9498 15 52.7385 15 51.3215V19.7794C15 17.9607 15.8123 16.4436 18.1431 16.2423Z" fill="black"/>
</svg>
