<svg width="80" height="80" viewBox="0 0 80 80" fill="none" xmlns="http://www.w3.org/2000/svg">
<path d="M19 55.4326V24.5109C19 24.3005 19.0879 24.1803 19.293 24.1803C19.7911 24.1803 20.2599 24.1803 20.9337 24.1503C21.6369 24.1202 22.3694 24.1202 23.1605 24.0902C23.9515 24.0601 24.8012 24.0601 25.7095 24.03C26.6177 24 27.4967 24 28.3757 24C30.7782 24 32.7705 24.3005 34.4113 24.9316C35.8762 25.4424 37.224 26.2838 38.3374 27.3957C39.2749 28.3573 40.0074 29.5293 40.4762 30.8214C40.9157 32.0835 41.1501 33.3757 41.1501 34.728C41.1501 37.3123 40.5641 39.4458 39.3921 41.1287C38.2202 42.8115 36.5794 44.0736 34.675 44.7948C32.6826 45.5461 30.4852 45.8165 28.0827 45.8165C27.3795 45.8165 26.9107 45.8165 26.6177 45.7865C26.3248 45.7564 25.9146 45.7564 25.3579 45.7564V55.4025C25.3872 55.6129 25.2407 55.7932 25.0356 55.8233C25.0063 55.8233 24.977 55.8233 24.9184 55.8233H19.3516C19.1172 55.8233 19 55.7031 19 55.4326ZM25.3872 29.98V40.0769C25.7974 40.107 26.1783 40.137 26.5298 40.137H28.0827C29.2254 40.137 30.368 39.9567 31.4521 39.5961C32.3897 39.3256 33.21 38.7547 33.8546 38.0034C34.4699 37.2522 34.7629 36.2305 34.7629 34.9083C34.7922 33.9767 34.5578 33.0451 34.089 32.2338C33.5909 31.4525 32.8877 30.8515 32.0381 30.5209C30.954 30.0702 29.782 29.8899 28.5808 29.9199C27.819 29.9199 27.1451 29.9199 26.5884 29.95C26.0025 29.9199 25.5923 29.95 25.3872 29.98Z" fill="#31A8FF"/>
<path d="M59.4325 38.2439C58.5535 37.7631 57.6159 37.4326 56.6198 37.2222C55.5357 36.9818 54.4516 36.8316 53.3383 36.8316C52.7523 36.8015 52.137 36.8917 51.5803 37.0419C51.1995 37.1321 50.8772 37.3424 50.6721 37.6429C50.5256 37.8833 50.4377 38.1838 50.4377 38.4543C50.4377 38.7247 50.5549 38.9952 50.7307 39.2356C50.9944 39.5661 51.346 39.8366 51.7268 40.047C52.4007 40.4076 53.1039 40.7381 53.8071 41.0386C55.3892 41.5795 56.9128 42.3308 58.3191 43.2323C59.286 43.8633 60.0771 44.7047 60.6337 45.7265C61.1025 46.6881 61.3369 47.7398 61.3076 48.8216C61.3369 50.234 60.9267 51.6464 60.165 52.8183C59.3446 54.0203 58.2019 54.9519 56.8835 55.4928C55.4478 56.1239 53.6899 56.4544 51.5803 56.4544C50.2326 56.4544 48.9141 56.3342 47.5957 56.0638C46.5702 55.8834 45.5447 55.5529 44.6072 55.1021C44.4021 54.9819 44.2556 54.7716 44.2849 54.5312V49.3024C44.2849 49.2123 44.3142 49.0921 44.4021 49.032C44.49 48.9719 44.5779 49.0019 44.6658 49.062C45.8084 49.7532 47.0097 50.234 48.2989 50.5345C49.4122 50.835 50.5842 50.9853 51.7561 50.9853C52.8695 50.9853 53.6606 50.835 54.188 50.5646C54.6567 50.3542 54.979 49.8433 54.979 49.3024C54.979 48.8817 54.7446 48.4911 54.2759 48.1004C53.8071 47.7098 52.8402 47.259 51.4046 46.6881C49.9103 46.1472 48.5332 45.426 47.2441 44.5244C46.3358 43.8633 45.574 42.9919 45.0174 41.9702C44.5486 41.0086 44.3142 39.9568 44.3435 38.905C44.3435 37.6129 44.6951 36.3808 45.3397 35.269C46.0721 34.0669 47.1562 33.1053 48.4161 32.5043C49.7931 31.7831 51.5217 31.4526 53.602 31.4526C54.8032 31.4526 56.0338 31.5427 57.2351 31.723C58.114 31.8432 58.9637 32.0836 59.7548 32.4142C59.872 32.4442 59.9892 32.5644 60.0478 32.6846C60.0771 32.8048 60.1064 32.925 60.1064 33.0452V37.9434C60.1064 38.0636 60.0478 38.1838 59.9599 38.2439C59.6962 38.304 59.5497 38.304 59.4325 38.2439Z" fill="#31A8FF"/>
</svg>
