<svg width="80" height="80" viewBox="0 0 80 80" fill="none" xmlns="http://www.w3.org/2000/svg">
<path d="M18 56.2964V23.5406C18 23.318 18.0954 23.1908 18.318 23.1908C18.8586 23.1908 19.3675 23.1908 20.0989 23.159C20.8622 23.1272 21.6572 23.1272 22.5158 23.0954C23.3745 23.0636 24.2967 23.0636 25.2826 23.0318C26.2685 23 27.2225 23 28.1766 23C30.7843 23 32.9468 23.318 34.7277 23.9859C36.3178 24.5265 37.7807 25.4169 38.9891 26.5936C40.0068 27.6113 40.8018 28.8515 41.3107 30.219C41.7877 31.5547 42.0421 32.9221 42.0421 34.3532C42.0421 37.0882 41.4061 39.3461 40.134 41.127C38.8619 42.9079 37.081 44.2436 35.0139 45.0068C32.8514 45.8018 30.4663 46.0881 27.8585 46.0881C27.0953 46.0881 26.5865 46.0881 26.2685 46.0563C25.9504 46.0245 25.5052 46.0245 24.901 46.0245V56.2328C24.9328 56.4554 24.7738 56.6462 24.5512 56.678H24.424H18.3816C18.1272 56.678 18 56.5508 18 56.2646V56.2964ZM24.9328 29.3603V40.0457C25.378 40.0775 25.7914 40.1093 26.173 40.1093H27.8585C29.0988 40.1093 30.3391 39.9185 31.5157 39.5369C32.5334 39.2507 33.4238 38.6465 34.1235 37.8514C34.7913 37.0564 35.1093 35.9751 35.1093 34.5758C35.1411 33.59 34.8867 32.6041 34.3779 31.7455C33.8373 30.9186 33.074 30.2826 32.1518 29.9328C30.9751 29.4558 29.703 29.2649 28.3992 29.2967C27.5723 29.2967 26.8409 29.2967 26.2367 29.3285C25.6006 29.2967 25.1554 29.3285 24.9328 29.3603Z" fill="#9999FF"/>
<path d="M46.6215 31.2367H52.1868C52.5049 31.2367 52.7593 31.4593 52.8547 31.7455C52.9501 31.9999 53.0137 32.2543 53.0455 32.5405C53.1091 32.8585 53.1727 33.2084 53.2045 33.5264C53.2363 33.8762 53.2681 34.2578 53.2681 34.6712C54.2221 33.5582 55.367 32.6359 56.6709 31.9363C58.1338 31.1094 59.8193 30.696 61.5047 30.696C61.7274 30.6642 61.9182 30.8232 61.95 31.0458V31.173V37.3744C61.95 37.6288 61.791 37.7242 61.4411 37.7242C60.2963 37.6924 59.1196 37.7878 58.0066 38.0422C57.0843 38.233 56.1939 38.5193 55.3352 38.9009C54.731 39.1871 54.1585 39.5687 53.7133 40.0775V56.2964C53.7133 56.6144 53.5861 56.7416 53.2999 56.7416H47.035C46.7805 56.7734 46.5579 56.6144 46.5261 56.36V56.2328V38.6147C46.5261 37.8514 46.5261 37.0564 46.4943 36.2295C46.4625 35.4027 46.4625 34.5758 46.4307 33.749C46.4307 33.0175 46.3671 32.3179 46.3035 31.5865C46.2717 31.4275 46.3671 31.2685 46.5261 31.2367C46.5261 31.2048 46.5897 31.2048 46.6215 31.2367Z" fill="#9999FF"/>
</svg>
