<svg width="80" height="80" viewBox="0 0 80 80" fill="none" xmlns="http://www.w3.org/2000/svg">
<path d="M40 46.0562C43.3448 46.0562 46.0562 43.3448 46.0562 40C46.0562 36.6552 43.3448 33.9437 40 33.9437C36.6552 33.9437 33.9437 36.6552 33.9437 40C33.9437 43.3448 36.6552 46.0562 40 46.0562Z" fill="#61DAFB"/>
<path d="M63.0031 30.0125C61.8344 29.5875 60.6125 29.1625 59.3375 28.7906C59.6562 27.5156 59.9219 26.2406 60.1344 25.0187C61.25 18.0062 60.0281 13.0656 56.6281 11.1531C55.6187 10.5687 54.5031 10.3031 53.2281 10.3031C49.5094 10.3031 44.7812 13.0656 40 17.6875C35.2187 13.0656 30.4906 10.3031 26.7719 10.3031C25.4969 10.3031 24.3812 10.5687 23.3719 11.1531C19.9719 13.1187 18.75 18.0594 19.8656 25.0187C20.0781 26.2406 20.3437 27.5156 20.6625 28.7906C19.3875 29.1625 18.1656 29.5344 16.9969 30.0125C10.3562 32.5625 6.74374 36.0687 6.74374 40C6.74374 43.9312 10.4094 47.4375 16.9969 49.9875C18.1656 50.4125 19.3875 50.8375 20.6625 51.2094C20.3437 52.4844 20.0781 53.7594 19.8656 54.9812C18.75 61.9937 19.9719 66.9344 23.3719 68.8469C24.3812 69.4313 25.4969 69.6969 26.7719 69.6969C30.5437 69.6969 35.2719 66.9344 40 62.3125C44.7812 66.9344 49.5094 69.6969 53.2281 69.6969C54.5031 69.6969 55.6187 69.4313 56.6281 68.8469C60.0281 66.8813 61.25 61.9406 60.1344 54.9812C59.9219 53.7594 59.6562 52.4844 59.3375 51.2094C60.6125 50.8375 61.8344 50.4656 63.0031 49.9875C69.6437 47.4375 73.2562 43.9312 73.2562 40C73.2562 36.0687 69.6437 32.5625 63.0031 30.0125ZM55.1406 13.8094C57.3187 15.0844 58.0625 19.0156 57.1594 24.5937C57 25.7094 56.7344 26.8781 56.4156 28.1C53.6531 27.4625 50.7312 27.0375 47.65 26.7719C45.8437 24.2219 43.9844 21.9375 42.125 19.8656C46.0562 15.9875 50.0406 13.3312 53.2812 13.3312C53.9719 13.3312 54.6094 13.4906 55.1406 13.8094ZM49.1906 45.3125C48.2344 47.0125 47.1187 48.7125 45.95 50.4125C43.9844 50.5719 42.0187 50.625 40 50.625C37.9281 50.625 35.9625 50.5719 34.05 50.4125C32.8812 48.7125 31.8187 47.0125 30.8625 45.3125C29.8531 43.5594 28.8969 41.7531 28.0469 40C28.8969 38.2469 29.8531 36.4406 30.8625 34.6875C31.8187 32.9875 32.9344 31.2875 34.1031 29.5875C36.0687 29.4281 38.0344 29.375 40.0531 29.375C42.125 29.375 44.0906 29.4281 46.0031 29.5875C47.1719 31.2875 48.2344 32.9875 49.1906 34.6875C50.2 36.4406 51.1562 38.2469 52.0062 40C51.1031 41.7531 50.2 43.5062 49.1906 45.3125ZM53.6 43.5594C54.3969 45.4187 55.0344 47.225 55.6187 49.0312C53.8125 49.4562 51.9 49.775 49.8812 50.0406C50.5187 49.0312 51.2094 47.9688 51.7937 46.8531C52.4312 45.7375 53.0156 44.6219 53.6 43.5594ZM40 57.9562C38.725 56.575 37.5031 55.0875 36.3344 53.5469C37.5562 53.6 38.7781 53.6531 40 53.6531C41.2219 53.6531 42.4437 53.6 43.6656 53.5469C42.4969 55.0875 41.275 56.575 40 57.9562ZM30.1187 49.9875C28.1 49.7219 26.1875 49.4031 24.3812 48.9781C24.9656 47.225 25.6031 45.3656 26.4 43.5062C26.9844 44.5687 27.5687 45.6844 28.2062 46.7469C28.8437 47.9156 29.4812 48.925 30.1187 49.9875ZM26.4 36.4406C25.6031 34.5812 24.9656 32.775 24.3812 30.9688C26.1875 30.5437 28.1 30.225 30.1187 29.9594C29.4812 30.9687 28.7906 32.0312 28.2062 33.1469C27.5687 34.2625 26.9844 35.3781 26.4 36.4406ZM40 22.0437C41.275 23.425 42.4969 24.9125 43.6656 26.4531C42.4437 26.4 41.2219 26.3469 40 26.3469C38.7781 26.3469 37.5562 26.4 36.3344 26.4531C37.5031 24.9125 38.725 23.425 40 22.0437ZM51.7937 33.2L49.8812 30.0125C51.9 30.2781 53.8125 30.5969 55.6187 31.0219C55.0344 32.775 54.3969 34.6344 53.6 36.4937C53.0156 35.3781 52.4312 34.2625 51.7937 33.2ZM22.8406 24.5937C21.9375 19.0156 22.6812 15.0844 24.8594 13.8094C25.3906 13.4906 26.0281 13.3312 26.7187 13.3312C29.9062 13.3312 33.8906 15.9344 37.875 19.8656C36.0156 21.8844 34.1562 24.2219 32.35 26.7719C29.2687 27.0375 26.3469 27.5156 23.5844 28.1C23.2656 26.8781 23.0531 25.7094 22.8406 24.5937ZM9.71874 40C9.71874 37.5031 12.7469 34.8469 18.0594 32.8812C19.1219 32.4562 20.2906 32.0844 21.4594 31.7656C22.3094 34.4219 23.3719 37.2375 24.6469 40.0531C23.3719 42.8687 22.2562 45.6312 21.4594 48.2875C14.1281 46.1625 9.71874 42.975 9.71874 40ZM24.8594 66.1906C22.6812 64.9156 21.9375 60.9844 22.8406 55.4062C23 54.2906 23.2656 53.1219 23.5844 51.9C26.3469 52.5375 29.2687 52.9625 32.35 53.2281C34.1562 55.7781 36.0156 58.0625 37.875 60.1344C33.9437 64.0125 29.9594 66.6687 26.7187 66.6687C26.0281 66.6687 25.3906 66.5094 24.8594 66.1906ZM57.1594 55.4062C58.0625 60.9844 57.3187 64.9156 55.1406 66.1906C54.6094 66.5094 53.9719 66.6687 53.2812 66.6687C50.0937 66.6687 46.1094 64.0656 42.125 60.1344C43.9844 58.1156 45.8437 55.7781 47.65 53.2281C50.7312 52.9625 53.6531 52.4844 56.4156 51.9C56.7344 53.1219 56.9469 54.2906 57.1594 55.4062ZM61.9406 47.1188C60.8781 47.5438 59.7094 47.9156 58.5406 48.2344C57.6906 45.5781 56.6281 42.7625 55.3531 39.9469C56.6281 37.1313 57.7437 34.3687 58.5406 31.7125C65.8719 33.8375 70.2812 37.025 70.2812 40C70.2812 42.4969 67.2 45.1531 61.9406 47.1188Z" fill="#61DAFB"/>
</svg>
