<svg width="80" height="80" viewBox="0 0 80 80" fill="none" xmlns="http://www.w3.org/2000/svg">
<path d="M26.2206 46.2696C26.2206 49.0184 23.9789 51.2635 21.2297 51.2635C18.481 51.2635 16.2362 49.0184 16.2362 46.2696C16.2362 43.5209 18.4814 41.2758 21.2301 41.2758H26.221L26.2206 46.2696ZM28.7365 46.2696C28.7365 43.5209 30.9816 41.2758 33.7304 41.2758C36.4791 41.2758 38.7242 43.5205 38.7242 46.2696V58.7703C38.7242 61.519 36.4795 63.7641 33.7304 63.7641C30.9816 63.7641 28.7365 61.519 28.7365 58.7703V46.2696Z" fill="#DE1C59"/>
<path d="M33.7304 26.2206C30.9816 26.2206 28.7365 23.9789 28.7365 21.2298C28.7365 18.481 30.9816 16.2363 33.7304 16.2363C36.4791 16.2363 38.7242 18.4814 38.7242 21.2301V26.221L33.7304 26.2206ZM33.7304 28.7365C36.4791 28.7365 38.7242 30.9816 38.7242 33.7304C38.7242 36.4791 36.4795 38.7243 33.7304 38.7243H21.2297C18.481 38.7243 16.2362 36.4795 16.2362 33.7304C16.2362 30.9816 18.4814 28.7365 21.2301 28.7365H33.7304Z" fill="#35C5F0"/>
<path d="M53.7794 33.7304C53.7794 30.9816 56.0211 28.7365 58.7703 28.7365C61.519 28.7365 63.7641 30.9816 63.7641 33.7304C63.7641 36.4791 61.519 38.7243 58.7703 38.7243H53.7794V33.7304ZM51.2635 33.7304C51.2635 36.4791 49.0184 38.7243 46.2696 38.7243C43.5209 38.7243 41.2758 36.4795 41.2758 33.7304V21.2298C41.2758 18.481 43.5205 16.2363 46.2696 16.2363C49.0184 16.2363 51.2635 18.4814 51.2635 21.2301V33.7304Z" fill="#2EB57D"/>
<path d="M46.2696 53.7794C49.0184 53.7794 51.2635 56.0211 51.2635 58.7703C51.2635 61.519 49.0184 63.7641 46.2696 63.7641C43.5209 63.7641 41.2758 61.519 41.2758 58.7703V53.7794H46.2696ZM46.2696 51.2635C43.5209 51.2635 41.2758 49.0184 41.2758 46.2696C41.2758 43.5209 43.5205 41.2758 46.2696 41.2758H58.7703C61.519 41.2758 63.7641 43.5205 63.7641 46.2696C63.7641 49.0184 61.519 51.2635 58.7703 51.2635H46.2696Z" fill="#EBB02E"/>
</svg>
