<svg width="80" height="80" viewBox="0 0 80 80" fill="none" xmlns="http://www.w3.org/2000/svg">
<path d="M40.0017 23.8008C32.8015 23.8008 28.3031 27.3994 26.5017 34.5996C29.2008 31.0006 32.3518 29.651 35.9508 30.5508C38.0058 31.063 39.4743 32.5531 41.1007 34.2043C43.7475 36.8904 46.8112 40 53.5017 40C60.7014 40 65.2003 36.401 67.0017 29.1992C64.3021 32.8003 61.1515 34.1499 57.5521 33.25C55.4976 32.7374 54.0307 31.2478 52.4023 29.5966C49.7571 26.9105 46.6943 23.8008 40.0017 23.8008ZM26.5017 40C19.302 40 14.8031 43.599 13.0017 50.8008C15.7008 47.1997 18.8514 45.8501 22.4508 46.75C24.5058 47.2626 25.9743 48.7522 27.6007 50.4034C30.2475 53.0895 33.3112 56.1992 40.0017 56.1992C47.2014 56.1992 51.7003 52.6006 53.5017 45.4004C50.8021 48.9994 47.6515 50.349 44.0521 49.4492C41.9976 48.937 40.5307 47.4469 38.9023 45.7957C36.2571 43.1096 33.1943 40 26.5017 40Z" fill="#38B2AC"/>
</svg>
